<mxfile host="app.diagrams.net" agent="Mozilla/5.0 (Windows NT 10.0; Win64; x64) AppleWebKit/537.36 (KHTML, like Gecko) Chrome/127.0.0.0 Safari/537.36 Edg/127.0.0.0" version="24.7.6">
  <diagram name="Strona-1" id="6g-ppjJY28PBCX4yfmqS">
    <mxGraphModel dx="1050" dy="611" grid="1" gridSize="10" guides="1" tooltips="1" connect="1" arrows="1" fold="1" page="1" pageScale="1" pageWidth="827" pageHeight="1169" math="0" shadow="0">
      <root>
        <mxCell id="0" />
        <mxCell id="1" parent="0" />
        <mxCell id="E9Z5-KVDgLf2QwSz4Szn-1" value="Adventure Game" style="rounded=0;whiteSpace=wrap;html=1;" parent="1" vertex="1">
          <mxGeometry x="90" y="60" width="120" height="60" as="geometry" />
        </mxCell>
        <mxCell id="E9Z5-KVDgLf2QwSz4Szn-3" value="Game_AE01 - Adventure Educational 001&lt;br&gt;&lt;div style=&quot;text-align: left;&quot;&gt;&lt;span style=&quot;background-color: initial;&quot;&gt;The purpose is to create funny, engaging math game for young people.&lt;/span&gt;&lt;/div&gt;&lt;div style=&quot;text-align: left;&quot;&gt;&lt;span style=&quot;background-color: initial;&quot;&gt;&lt;br&gt;&lt;/span&gt;&lt;/div&gt;&lt;div style=&quot;text-align: left;&quot;&gt;&lt;span style=&quot;background-color: initial;&quot;&gt;What young people like? Magic, pets, superpowers&amp;nbsp;&lt;/span&gt;&lt;/div&gt;&lt;div style=&quot;text-align: left;&quot;&gt;Good vs Evil fights, powers, supernatural phenomenoms&lt;/div&gt;&lt;div style=&quot;text-align: left;&quot;&gt;Emotions? Vivid, such as angry, happy, sad, nothing complex&lt;/div&gt;&lt;div style=&quot;text-align: left;&quot;&gt;&lt;br&gt;&lt;/div&gt;" style="shape=note2;boundedLbl=1;whiteSpace=wrap;html=1;size=25;verticalAlign=top;align=center;fillColor=#333300;fontColor=#FFFFFF;" parent="1" vertex="1">
          <mxGeometry x="360" y="110" width="340" height="170" as="geometry" />
        </mxCell>
        <mxCell id="E9Z5-KVDgLf2QwSz4Szn-4" value="&lt;div style=&quot;&quot;&gt;Action&lt;/div&gt;&lt;div style=&quot;text-align: left;&quot;&gt;Main character fights with ugly, stupid minions.&lt;br&gt;The weapon is &quot;knowledge&quot;, which must be loaded by solving the basic mathematical operations.&lt;br&gt;&quot;Knowledge&quot; is something like &quot;mana&quot; but is split on several parts, depends on the complexity of operation which was calculate by Player.&lt;br&gt;&lt;br&gt;&lt;/div&gt;&lt;div style=&quot;text-align: left;&quot;&gt;??Those several parts may be compare with ground/air/water/fire mana -&amp;gt; addition/subtraction/multiplication/division??&lt;/div&gt;&lt;div style=&quot;text-align: left;&quot;&gt;&lt;br&gt;&lt;/div&gt;&lt;div style=&quot;text-align: left;&quot;&gt;Gameplay shall be split into levels such as:&lt;/div&gt;&lt;div style=&quot;text-align: left;&quot;&gt;1. basic - basic operations&amp;nbsp;&lt;span style=&quot;background-color: initial;&quot;&gt;on natural and whole numbers&lt;/span&gt;&lt;span style=&quot;background-color: initial;&quot;&gt;:&lt;/span&gt;&lt;/div&gt;&lt;div style=&quot;text-align: left;&quot;&gt;&amp;nbsp; 1.1 addition&lt;/div&gt;&lt;div style=&quot;text-align: left;&quot;&gt;&amp;nbsp; 1.2 substraction&lt;/div&gt;&lt;div style=&quot;text-align: left;&quot;&gt;&amp;nbsp; 1.3 multiplication&lt;/div&gt;&lt;div style=&quot;text-align: left;&quot;&gt;&amp;nbsp; 1.4 division&lt;/div&gt;&lt;div style=&quot;text-align: left;&quot;&gt;&amp;nbsp; 1.5 potentiation&amp;nbsp;&lt;/div&gt;&lt;div style=&quot;text-align: left;&quot;&gt;2. Fractions&lt;/div&gt;&lt;div style=&quot;text-align: left;&quot;&gt;3.... TBD&lt;/div&gt;" style="shape=note2;boundedLbl=1;whiteSpace=wrap;html=1;size=25;verticalAlign=top;align=center;fillColor=#333300;fontColor=#FFFFFF;" parent="1" vertex="1">
          <mxGeometry x="360" y="311" width="340" height="359" as="geometry" />
        </mxCell>
        <mxCell id="E9Z5-KVDgLf2QwSz4Szn-5" value="&lt;div style=&quot;&quot;&gt;Glossary&lt;/div&gt;&lt;div style=&quot;text-align: left;&quot;&gt;Player - person who sitting next to the Computer ;)&lt;/div&gt;&lt;div style=&quot;text-align: left;&quot;&gt;Main character - playable character by Player&lt;/div&gt;&lt;div style=&quot;text-align: left;&quot;&gt;Minions - evil characters which must be confused by Main character&lt;br&gt;Knowledge - superpower which may be compare with mana/ether&lt;br&gt;Operations - phenomen which may be compare with magic spell&lt;/div&gt;" style="shape=note2;boundedLbl=1;whiteSpace=wrap;html=1;size=25;verticalAlign=top;align=center;fillColor=#333300;fontColor=#FFFFFF;" parent="1" vertex="1">
          <mxGeometry y="311" width="340" height="170" as="geometry" />
        </mxCell>
        <mxCell id="uu3oAmoelk0BLP45TTqR-1" value="&lt;div style=&quot;&quot;&gt;Main story draft&lt;/div&gt;&lt;div style=&quot;&quot;&gt;You start as young talented wizard, who have a power to change the world but you must learn a lot. On your journey you will find many interesting, creative people who will help you.&lt;/div&gt;&lt;div style=&quot;&quot;&gt;What do you want from your life? That&#39;s the question you will be asking during the whole journey.&amp;nbsp;&lt;br&gt;Main goal - Some old, wise woman told you, that when she was young she heard story about ancient library where were Living Books who knew answers for any questions. They were wrote by the most powerful magician in the World - Arctuss, the Wise. In that time Arctuss create own World, called Place, and build many towns, where animals and people lived in peace and harmony.&lt;/div&gt;&lt;div style=&quot;&quot;&gt;You have your own questions. That&#39;s a great opportunity to find out the answers!&amp;nbsp;&lt;br&gt;But right now you do not know nothing, you do not know where to search and you are not only one who know this story...&lt;/div&gt;" style="shape=note2;boundedLbl=1;whiteSpace=wrap;html=1;size=25;verticalAlign=top;align=center;fillColor=#333300;fontColor=#FFFFFF;" parent="1" vertex="1">
          <mxGeometry y="680" width="340" height="300" as="geometry" />
        </mxCell>
      </root>
    </mxGraphModel>
  </diagram>
</mxfile>
